<?xml version="1.0" encoding="iso-8859-1"?>
<!-- Generator: Adobe Illustrator 19.0.0, SVG Export Plug-In . SVG Version: 6.00 Build 0)  -->
<svg version="1.1" id="Capa_1" xmlns="http://www.w3.org/2000/svg" xmlns:xlink="http://www.w3.org/1999/xlink" x="0px" y="0px"
	 viewBox="0 0 490.448 490.448" style="enable-background:new 0 0 490.448 490.448;" xml:space="preserve">
<g>
	<g>
		<path d="M94.1,237.652c12.2,0,22.1,9.9,22.1,22.1c0,12.2-9.9,22.1-22.1,22.1s-22.1-9.9-22.1-22.1
			C72,247.552,81.9,237.652,94.1,237.652z M36.4,389.952h347.7c20.1,0,36.4-16.3,36.4-36.4v-88.7c-1,0.1-2,0.3-3,0.3
			c-7.1,0-13.9-2.8-18.9-7.8c-0.4-0.4-0.7-0.7-1-1.1c-2.7,2.5-5.4,5-8.2,7.6v54.6c-2.9-0.7-6-1.1-9.1-1.1
			c-20.4,0-36.9,16.5-36.9,36.9c0,1.5,0.1,3.1,0.3,4.6H73.8c0.4-2.2,0.6-4.5,0.6-6.8c0-20.4-16.5-36.9-36.9-36.9
			c-2.2,0-4.4,0.2-6.5,0.6v-112c2.1,0.4,4.3,0.6,6.5,0.6c20.4,0,36.9-16.5,36.9-36.9c0-2.3-0.2-4.6-0.6-6.8h270.7
			c-0.7,2.9-1.1,5.9-1.1,9c0,5.1,1,10,2.9,14.4c3.6-3.8,7.3-7.7,11-11.6c0.2-0.3,0.5-0.5,0.8-0.8l0.6-0.6l1.1-1.1l1.8-1.9
			c0.9-1,1.8-1.8,2.6-2.6l12.7-12.9c0.6-0.7,1.2-1.3,1.8-2c3.7-3.7,7.4-7.4,11.1-11c2.5-2.5,5-5,7.5-7.4c-4.1-1.6-8.6-2.6-13.3-2.6
			H36.4c-20.1,0-36.4,16.3-36.4,36.4v187.5C0,373.552,16.4,389.952,36.4,389.952z M247.9,311.852c-3,7.8-3,14-1.5,19
			c-10.9,5.5-23.1,8.7-36.1,8.7c-44.1,0-79.8-35.7-79.8-79.8s35.7-79.8,79.8-79.8c40.5,0,73.9,30.2,79.1,69.2
			c-14.1,17.5-25.8,33.1-35.9,50.6c-0.3,0.5-0.5,1-0.8,1.5c-0.3,0.7-0.6,1.3-1,2c-1.1,2.1-2.4,4.8-3.4,7.8
			C248.1,311.352,248,311.552,247.9,311.852z M225.5,254.752c-4.3-2.4-8.9-4.2-13.4-6c-2.6-1.1-5.1-2.4-7.3-4.1
			c-4.3-3.5-3.5-9.1,1.6-11.4c1.4-0.6,2.9-0.8,4.5-0.9c5.9-0.3,11.5,0.8,16.9,3.3c2.7,1.3,3.5,0.9,4.4-1.9c0.9-2.9,1.8-5.9,2.6-8.9
			c0.6-2-0.1-3.3-2-4.1c-3.4-1.5-7-2.6-10.7-3.2c-4.8-0.8-4.8-0.8-4.9-5.6c0-6.9,0-6.9-6.9-6.9c-1,0-2,0-3,0
			c-3.2,0.1-3.8,0.6-3.8,3.9c0,1.5,0,2.9,0,4.4c0,4.3,0,4.2-4.1,5.7c-9.9,3.6-16.1,10.4-16.7,21.2c-0.6,9.6,4.4,16.1,12.3,20.8
			c4.9,2.9,10.2,4.6,15.4,6.9c2,0.9,3.9,1.9,5.6,3.3c5,4.1,4,10.9-1.8,13.5c-3.1,1.4-6.5,1.7-9.9,1.3c-5.3-0.7-10.3-2-15-4.5
			c-2.8-1.4-3.6-1.1-4.5,1.9c-0.8,2.6-1.5,5.2-2.3,7.8c-1,3.5-0.6,4.4,2.7,6c4.3,2.1,8.9,3.1,13.5,3.9c3.7,0.6,3.8,0.7,3.8,4.5
			c0,1.7,0,3.4,0,5.2c0,2.2,1.1,3.4,3.3,3.5c2.5,0,5.1,0,7.6,0c2.1-0.1,3.1-1.2,3.1-3.3c0-2.4,0.1-4.7,0-7.1s0.9-3.6,3.2-4.2
			c5.3-1.5,9.8-4.3,13.3-8.5C242.8,279.452,239.2,262.352,225.5,254.752z M391.5,165.252l-14,14.1c-0.6,0.5-1.2,1.2-2.1,2.1
			c-1,1-2,2-2.9,3l-0.7,0.7l0,0c-22.4,23.2-44.1,47.2-64.5,72.3c-13.4,16.5-26.5,33.3-37.3,51.9c-1.2,2.6-2.7,5.2-3.7,8
			c-1.1,3.2-3.3,7-0.3,9.8c2.9,2.8,6.6,0.7,9.8-0.6c8.7-3.5,16.4-8.7,24-14.1c36.8-26.1,70.2-56.4,102.6-87.6l0,0l0.2-0.2
			c2.9-2.8,5.8-5.6,8.8-8.5c0.6-0.5,1-1,1.2-1.5l14-13.9c0.5-0.3,1.1-0.8,1.7-1.5c11.2-11.7,22.8-23.2,33.9-35
			c0.2-0.2,0.4-0.4,0.6-0.6l9.1,9l-59.7,59.9c-3,3-2.9,7.8,0,10.7c1.5,1.5,3.4,2.2,5.4,2.2c1.9,0,3.9-0.7,5.4-2.2l65.1-65.3
			c3-3,2.9-7.8,0-10.7l-15-15l5.8-6.8c2.7-3.5,5.2-7.2,7.4-11.1c0.7-1.3,1.4-2.5,2-3.8c4.1-8.9,2.4-16.1-5.7-24
			c-6.9-6.7-13.4-7.8-22.2-3.5c-6,2.9-11.2,6.9-16.2,11.2c-18.2,15.5-34.7,32.7-51.7,49.5C392,164.552,391.7,164.952,391.5,165.252z
			"/>
	</g>
</g>
<g>
</g>
<g>
</g>
<g>
</g>
<g>
</g>
<g>
</g>
<g>
</g>
<g>
</g>
<g>
</g>
<g>
</g>
<g>
</g>
<g>
</g>
<g>
</g>
<g>
</g>
<g>
</g>
<g>
</g>
</svg>
