<svg id="Capa_1" enable-background="new 0 0 497 497" height="512" viewBox="0 0 497 497" width="512" xmlns="http://www.w3.org/2000/svg"><g id="_x3C_Group_x3E__38_"><path d="m484.223 416.75h-473.361c-2.761 0-5-2.239-5-5l-1.639-318.989c0-2.761 2.239-5 5-5l7.777-5.511h475c2.761 0 5 2.239 5 5v318l-7.777 6.5c0 2.761-2.238 5-5 5z" fill="#c48958"/><path d="m497 405.25v12c0 2.761-2.239 5-5 5h-487c-2.761 0-5-2.239-5-5v-330c0-2.761 2.239-5 5-5h12v318c0 2.761 2.239 5 5 5z" fill="#b27a49"/><path d="m266 427.25h-35c-2.761 0-5-2.239-5-5v-30h45v30c0 2.761-2.239 5-5 5z" fill="#b27a49"/><path d="m453.074 386.25-204.574 1.266-16.021-127.766 18.133-169.489c0-11.91 4.829-30.21 14.886-35.055 3.933-1.895 8.344-2.956 13.002-2.956h183.5c2.761 0 5 2.239 5 5v318l-8.926 6c0 2.761-2.238 5-5 5z" fill="#faf8f8"/><path d="m467 375.25v12c0 2.761-2.239 5-5 5h-213.5l-16.021-149.489 16.021-160.511c0-11.91 6.94-22.2 17-27.04v316.04c0 2.209 1.791 4 4 4z" fill="#f0e9e6"/><path d="m248.5 387.516-209.213 1.234c-2.761 0-5-2.239-5-5l-1.468-321.851c0-2.761 2.239-5 5-5l9.181-4.649h171.5c16.569 0 30 13.431 30 30z" fill="#faf8f8"/><path d="m265.5 375.25v17h-230.5c-2.761 0-5-2.239-5-5v-330c0-2.761 2.239-5 5-5h12v319c0 2.209 1.791 4 4 4z" fill="#f0e9e6"/><g><path d="m157.694 100.261h-77.694c-4.142 0-7.5-3.357-7.5-7.5s3.358-7.5 7.5-7.5h77.694c4.142 0 7.5 3.357 7.5 7.5s-3.358 7.5-7.5 7.5z" fill="#aad8de"/></g><g><path d="m192.166 132.761h-132.166c-4.142 0-7.5-3.357-7.5-7.5s3.358-7.5 7.5-7.5h132.166c4.142 0 7.5 3.357 7.5 7.5s-3.358 7.5-7.5 7.5z" fill="#aad8de"/></g><g><path d="m436.873 100.261h-138.373c-4.142 0-7.5-3.357-7.5-7.5s3.358-7.5 7.5-7.5h138.373c4.142 0 7.5 3.357 7.5 7.5s-3.358 7.5-7.5 7.5z" fill="#aad8de"/></g><g><path d="m436.873 132.761h-158.246c-4.142 0-7.5-3.357-7.5-7.5s3.358-7.5 7.5-7.5h158.245c4.142 0 7.5 3.357 7.5 7.5s-3.357 7.5-7.499 7.5z" fill="#aad8de"/></g><g><g><path d="m436.873 165.261h-53.895c-4.142 0-7.5-3.357-7.5-7.5s3.358-7.5 7.5-7.5h53.895c4.142 0 7.5 3.357 7.5 7.5s-3.358 7.5-7.5 7.5z" fill="#aad8de"/></g><g><path d="m347.978 165.261h-69.35c-4.142 0-7.5-3.357-7.5-7.5s3.358-7.5 7.5-7.5h69.35c4.142 0 7.5 3.357 7.5 7.5s-3.358 7.5-7.5 7.5z" fill="#aad8de"/></g></g><g><path d="m436.873 197.761h-158.246c-4.142 0-7.5-3.357-7.5-7.5s3.358-7.5 7.5-7.5h158.245c4.142 0 7.5 3.357 7.5 7.5s-3.357 7.5-7.499 7.5z" fill="#aad8de"/></g><g><path d="m218.245 327.761h-158.245c-4.142 0-7.5-3.357-7.5-7.5s3.358-7.5 7.5-7.5h158.245c4.142 0 7.5 3.357 7.5 7.5s-3.358 7.5-7.5 7.5z" fill="#aad8de"/></g><g><path d="m104.924 360.261h-44.924c-4.142 0-7.5-3.357-7.5-7.5s3.358-7.5 7.5-7.5h44.924c4.142 0 7.5 3.357 7.5 7.5s-3.358 7.5-7.5 7.5z" fill="#aad8de"/></g><g><g><path d="m218.245 295.261h-49.511c-4.142 0-7.5-3.357-7.5-7.5s3.358-7.5 7.5-7.5h49.511c4.142 0 7.5 3.357 7.5 7.5s-3.358 7.5-7.5 7.5z" fill="#aad8de"/></g><g><path d="m133.755 295.261h-73.755c-4.142 0-7.5-3.357-7.5-7.5s3.358-7.5 7.5-7.5h73.755c4.142 0 7.5 3.357 7.5 7.5s-3.358 7.5-7.5 7.5z" fill="#aad8de"/></g></g><g><path d="m374.193 230.261h-95.693c-4.142 0-7.5-3.357-7.5-7.5s3.358-7.5 7.5-7.5h95.693c4.142 0 7.5 3.357 7.5 7.5s-3.358 7.5-7.5 7.5z" fill="#aad8de"/></g><g><path d="m437 262.761h-138.5c-4.142 0-7.5-3.357-7.5-7.5s3.358-7.5 7.5-7.5h138.5c4.142 0 7.5 3.357 7.5 7.5s-3.358 7.5-7.5 7.5z" fill="#aad8de"/></g><g><g><path d="m437 327.761h-35.678c-4.142 0-7.5-3.357-7.5-7.5s3.358-7.5 7.5-7.5h35.678c4.142 0 7.5 3.357 7.5 7.5s-3.358 7.5-7.5 7.5z" fill="#aad8de"/></g></g><g><path d="m335.866 323.013 78.777 70.26c12.643 11.276 13.202 30.864 1.223 42.843-2.081 2.081-4.391 3.783-6.848 5.11-11.685 6.31-23.732-4.455-33.05-14.902l-71.026-72.388z" fill="#5d748a"/><path d="m335.405 323.06-27.475-22.32-32.515-15.054-15.844 16.745 27.054 17.213 16.185 36.011z" fill="#5d748a"/><path d="m409.02 441.23c-4.36 2.35-9.18 3.52-13.99 3.52-8.09 0-16.17-3.31-22.01-9.86l-70.26-78.77 13-13 80.34 87.41c3.87 4.34 8.29 8.1 12.92 10.7z" fill="#3f597d"/><path d="m296.649 313.799c4.009-4.125 7.78-8.481 11.281-13.059l-25.75-20.92-9.61 9.61-13 13 43.193 53.686 12.997-12.996-19.344-24.047c-1.261-1.567-1.168-3.832.233-5.274z" fill="#3f597d"/><circle cx="192.166" cy="212.416" fill="#f0e9e6" r="107.845"/><path d="m347.821 334.961-20.61 20.61-14.52 8.37c-5.077 5.077-10.126 5.97-15.203.894l-3.946-1.02c-5.077-5.077-5.077-13.308 0-18.385l10.736-16.582 18.715-18.715c5.077-5.077 13.308-5.077 18.385 0l6.443 6.443c5.077 5.077 5.077 13.308 0 18.385z" fill="#ffbf54"/><path d="m327.21 355.57-12.43 12.43c-.26.26-.52.5-.79.71-5.11 4.36-12.78 4.11-17.6-.71l-6.44-6.44c-5.08-5.07-5.08-13.31 0-18.38l14.33-14.33 11.48 14.27z" fill="#ffa442"/><g><g><path d="m295.681 241.057h-96.057c-4.142 0-7.5-3.357-7.5-7.5s3.358-7.5 7.5-7.5h96.057c4.142 0 7.5 3.357 7.5 7.5s-3.358 7.5-7.5 7.5z" fill="#94ccd4"/></g><g><path d="m164.624 241.057h-76.81c-4.142 0-7.5-3.357-7.5-7.5s3.358-7.5 7.5-7.5h76.81c4.142 0 7.5 3.357 7.5 7.5s-3.358 7.5-7.5 7.5z" fill="#94ccd4"/></g><g><path d="m279.125 156.495h-172.396c-4.142 0-7.5-3.357-7.5-7.5s3.358-7.5 7.5-7.5h172.396c4.142 0 7.5 3.357 7.5 7.5s-3.357 7.5-7.5 7.5z" fill="#94ccd4"/></g><g><path d="m302.763 198.775h-222.012c-4.142 0-7.5-3.357-7.5-7.5s3.358-7.5 7.5-7.5h222.012c4.142 0 7.5 3.357 7.5 7.5s-3.358 7.5-7.5 7.5z" fill="#94ccd4"/></g><g><path d="m279.125 283.337h-173.577c-4.142 0-7.5-3.357-7.5-7.5s3.358-7.5 7.5-7.5h173.578c4.142 0 7.5 3.357 7.5 7.5s-3.358 7.5-7.501 7.5z" fill="#94ccd4"/></g></g><path d="m192.17 84.75c-33.808 0-64.588 13.207-87.451 34.734-24.746 23.299-34.793 56.344-34.793 92.936 0 70.39 53.164 123.522 123.564 123.522 21.55 0 37.676-2.616 55.5-12.085 11.584-6.154 24.989-12.654 34.116-21.925 22.7-23.057 36.725-54.678 36.725-89.512-.001-70.4-57.271-127.67-127.661-127.67zm0 226.46c-54.56 0-98.79-44.23-98.79-98.79s44.23-98.79 98.79-98.79 98.79 44.23 98.79 98.79-44.23 98.79-98.79 98.79z" fill="#5d748a"/><path d="m284.99 299.98c-23.29 24.68-56.29 40.1-92.82 40.1-70.4 0-127.67-57.27-127.67-127.66 0-40.23 18.7-76.18 47.88-99.59-21.61 22.87-34.88 53.71-34.88 87.59 0 70.39 57.27 127.66 127.67 127.66 30.17 0 57.94-10.53 79.82-28.1z" fill="#3f597d"/></g></g></svg>