<svg id="Layer_3" enable-background="new 0 0 64 64" height="512" viewBox="0 0 64 64" width="512" xmlns="http://www.w3.org/2000/svg"><g><g><path d="m2 2h44v56h-44z" fill="#e9edf4"/></g><g><path d="m2 49.143c2.098.559 4.271.857 6.5.857 17.397 0 31.5-17.909 31.5-40 0-2.74-.218-5.415-.631-8h-37.369z" fill="#fbfbfd"/></g><g><path d="m6 22v40h56v-33h-32l-7-7z" fill="#f7d881"/></g><g><path d="m30 29-7-7h-17v34.951c.664.026 1.329.049 2 .049 20.177 0 37.549-11.479 45.451-28z" fill="#fae8b3"/></g><g><path d="m30 29h30v-2c0-1.105-.895-2-2-2h-32z" fill="#b9a261"/></g><g><path d="m48 48v5c0 1.657 1.343 3 3 3 1.657 0 3-1.343 3-3v-5z" fill="#8b909f"/></g><g><path d="m61 29h-2v-2c0-.552-.448-1-1-1h-32v-2h32c1.654 0 3 1.346 3 3z"/></g><g><path d="m44 44h14v4h-14z" fill="#8b909f"/></g><g><path d="m2 2h44v16h-44z" fill="#f7d881"/></g><g><path d="m40 10c0-2.74-.218-5.415-.631-8h-37.369v16h37.369c.413-2.585.631-5.26.631-8z" fill="#fae8b3"/></g><g><path d="m62 63h-56c-.553 0-1-.447-1-1v-40c0-.553.447-1 1-1h17c.266 0 .52.105.707.293l6.707 6.707h31.586c.553 0 1 .447 1 1v33c0 .553-.447 1-1 1zm-55-2h54v-31h-31c-.266 0-.52-.105-.707-.293l-6.707-6.707h-15.586z"/></g><g><path d="m58 49h-14c-.553 0-1-.447-1-1v-4c0-.553.447-1 1-1h14c.553 0 1 .447 1 1v4c0 .553-.447 1-1 1zm-13-2h12v-2h-12z"/></g><g><path d="m51 57c-2.206 0-4-1.794-4-4v-5h2v5c0 1.103.897 2 2 2s2-.897 2-2v-5h2v5c0 2.206-1.794 4-4 4z"/></g><g><path d="m11 45h33v2h-33z"/></g><g><path d="m15 43h2v6h-2z"/></g><g><path d="m19 43h2v6h-2z"/></g><g><path d="m23 43h2v6h-2z"/></g><g><path d="m27 43h2v6h-2z"/></g><g><path d="m31 43h2v6h-2z"/></g><g><path d="m35 43h2v6h-2z"/></g><g><path d="m39 43h2v6h-2z"/></g><g><path d="m6 59h-4c-.553 0-1-.447-1-1v-56c0-.553.447-1 1-1h44c.553 0 1 .447 1 1v23h-2v-22h-42v54h3z"/></g><g><path d="m2 17h44v2h-44z"/></g><g><path d="m21 15h-5c-.347 0-.668-.18-.851-.475s-.199-.663-.044-.973l3.277-6.552h-3.382v-2h5c.347 0 .668.18.851.475s.199.663.044.973l-3.277 6.552h3.382z"/></g><g><path d="m23 5h2v10h-2z"/></g><g><path d="m29 15h-2v-9c0-.553.447-1 1-1h3c1.654 0 3 1.346 3 3s-1.346 3-3 3h-2zm0-6h2c.552 0 1-.448 1-1s-.448-1-1-1h-2z"/></g></g></svg>